PathFileType  4	(X/Y/Z) C:\Users\antoi\Documents\MyRepositories\mobilecap\ResultsAnalysis
DataRate	CameraRate	NumFrames	NumMarkers	Units	OrigDataRate	OrigDataStartFrame	OrigNumFrames
100.0	100.0	6	51	mm	100.0	169	1351
Frame#	Time	r_knee			r_shank_antsup			r_ankle			r_calc			r_5meta			r_toe			L_knee			L_shank_antsup			L_ankle			L_calc			L_5meta			L_toe			r_sh2			r_sh3			r_sh4			L_sh2			L_sh3			r_thigh1			r_thigh2			r_thigh3			r_thigh4			r_thigh5			L_thigh1			L_thigh2			L_thigh3			L_thigh4			r.ASIS			r.PSIS			L.ASIS			L.PSIS			C7			R_Shoulder			L_Shoulder			R_Sternum			L_Sternum			R_humerus			R_elbow_med			R_elbow_lat			R_forearm			R_wrist_radius			R_wrist_ulna			L_humerus			L_elbow_med			L_elbow_lat			L_forearm			L_wrist_radius			L_wrist_ulna			R_HJC			L_HJC			R_HJC_reg			L_HJC_reg			
		X1	Y1	Z1	X2	Y2	Z2	X3	Y3	Z3	X4	Y4	Z4	X5	Y5	Z5	X6	Y6	Z6	X7	Y7	Z7	X8	Y8	Z8	X9	Y9	Z9	X10	Y10	Z10	X11	Y11	Z11	X12	Y12	Z12	X13	Y13	Z13	X14	Y14	Z14	X15	Y15	Z15	X16	Y16	Z16	X17	Y17	Z17	X18	Y18	Z18	X19	Y19	Z19	X20	Y20	Z20	X21	Y21	Z21	X22	Y22	Z22	X23	Y23	Z23	X24	Y24	Z24	X25	Y25	Z25	X26	Y26	Z26	X27	Y27	Z27	X28	Y28	Z28	X29	Y29	Z29	X30	Y30	Z30	X31	Y31	Z31	X32	Y32	Z32	X33	Y33	Z33	X34	Y34	Z34	X35	Y35	Z35	X36	Y36	Z36	X37	Y37	Z37	X38	Y38	Z38	X39	Y39	Z39	X40	Y40	Z40	X41	Y41	Z41	X42	Y42	Z42	X43	Y43	Z43	X44	Y44	Z44	X45	Y45	Z45	X46	Y46	Z46	X47	Y47	Z47	X48	Y48	Z48	X49	Y49	Z49	X50	Y50	Z50	X51	Y51	Z51	

169	1.68000000	-58.26503	456.44340	-337.02465	-40.03454	348.98342	-363.42862	-280.18746	116.97493	-436.01350	-364.75636	74.31588	-500.28675	-188.47705	47.44511	-377.00393	-119.09853	72.05752	-430.49723	-53.88889	509.73614	-781.21076	-70.96174	434.53617	-816.56190	-262.09209	152.77886	-813.99161	-346.60086	104.85986	-757.30946	-180.59327	64.81443	-884.75052	-107.36862	76.76638	-830.95885	-111.84063	260.91873	-360.40019	-88.29111	387.97494	-320.67980	-173.51706	312.69558	-328.72898	-147.18407	476.00767	-791.36383	-199.01864	365.42905	-807.17608	-184.18810	754.28959	-311.35831	-111.32895	674.60870	-317.24152	-136.96383	616.90342	-289.01887	-266.24654	678.38140	-312.20280	-185.12684	597.24766	-309.20670	-160.67565	768.50242	-708.73514	-67.29710	667.15235	-736.86123	-242.53552	702.57714	-741.51705	-155.54499	600.15738	-768.35556	-221.05661	901.99961	-367.15478	-399.44663	939.44459	-433.23175	-220.91058	904.50767	-612.58243	-402.22704	941.30827	-542.83369	-120.02362	1424.02482	-459.31860	-61.99049	1333.83204	-300.82246	-79.79395	1359.69229	-631.73757	-19.80827	1305.80822	-439.44374	-23.78383	1306.25398	-494.93577	-60.07601	1188.86093	-228.33246	-117.59118	977.44397	-244.16509	-104.50005	1008.26206	-162.54998	41.78003	911.58971	-146.61644	130.80472	877.01453	-157.52550	99.00258	849.24734	-137.38557	-104.57899	1257.86016	-728.34304	-126.28244	1008.54704	-727.60103	-112.41790	1044.78690	-803.11894	-40.84314	1017.02275	-824.21446	106.56065	916.69979	-833.95560	81.20855	889.73243	-853.05828	-314.40158	796.92861	-386.14510	-318.92001	806.17217	-592.84973	-288.61655	829.80357	-401.06488	-292.72459	832.55562	-562.97996	
170	1.69000000	-61.42686	458.89587	-336.75352	-42.64299	351.40888	-362.91206	-280.37946	116.98142	-435.91759	-364.73370	74.32582	-500.28878	-188.50755	47.39360	-376.96372	-119.13068	72.03147	-430.42957	-56.71110	512.15792	-781.76684	-73.57958	436.34414	-816.79453	-261.49575	153.42812	-814.70106	-346.57519	105.30636	-757.73609	-180.37479	64.54945	-884.38257	-107.30027	76.83263	-831.26023	-113.80248	262.67361	-359.92821	-91.31939	389.96637	-320.49802	-175.78222	313.82817	-328.78324	-150.27960	477.34680	-792.11941	-201.00532	366.19778	-807.84241	-182.75552	758.94454	-311.35617	-111.38370	678.01098	-316.67388	-137.89334	620.69052	-288.94912	-266.02005	684.31014	-312.35238	-186.38169	601.72322	-309.46920	-158.99600	772.69103	-708.88652	-67.51280	669.74072	-737.26404	-242.15990	708.33108	-741.70724	-156.89262	604.56623	-768.90039	-218.80894	909.04183	-366.90453	-397.12515	946.39321	-433.25490	-218.16978	912.21813	-611.89659	-399.78657	948.59044	-542.97518	-122.47749	1433.40566	-459.39462	-63.33049	1343.68171	-300.84628	-83.00722	1369.00752	-631.22051	-21.35108	1316.16825	-439.68954	-25.39397	1316.50376	-495.20342	-61.52366	1198.18294	-228.77266	-120.68017	987.05687	-244.83527	-106.97704	1017.44651	-163.66489	37.58770	918.02401	-147.71143	125.97660	881.80739	-158.54599	93.59116	854.58756	-138.67710	-107.46489	1266.91178	-728.24389	-129.92545	1017.79951	-726.31604	-116.21571	1053.64750	-802.24492	-45.26955	1024.79577	-823.70139	100.35347	921.78853	-833.96100	74.47856	895.20401	-852.88287	-312.05226	803.89845	-386.29151	-316.03003	813.68080	-592.98233	-286.09555	836.93157	-401.03769	-290.01682	840.16632	-562.66623	
171	1.70000000	-64.74198	461.26946	-336.47474	-45.26442	353.77933	-362.42718	-280.56553	117.07237	-435.74909	-364.71052	74.30085	-500.26438	-188.53778	47.33192	-376.93276	-119.11180	72.03691	-430.32758	-59.51243	514.51454	-782.20204	-76.14912	438.27086	-817.31324	-261.17410	154.04872	-815.42502	-346.49245	105.77381	-758.16942	-180.04790	63.98196	-883.37951	-107.17439	76.93248	-831.67651	-115.67701	264.56141	-359.36434	-94.45826	391.90544	-320.39785	-178.21769	314.98374	-328.59223	-153.28708	478.83110	-793.15637	-202.78416	367.01393	-808.65175	-181.16537	763.41105	-311.43502	-111.69326	681.53383	-316.05042	-138.91255	624.26142	-288.96754	-265.80720	690.21926	-312.60931	-187.62115	606.39843	-309.48978	-157.40521	776.86548	-709.18485	-67.78473	672.36865	-737.65523	-241.75423	714.01767	-741.95497	-158.28228	608.83296	-769.24269	-216.56922	915.98925	-366.62946	-394.74233	953.22779	-433.36070	-215.49901	919.84668	-611.90521	-397.28588	955.66274	-543.26069	-125.01093	1442.66337	-459.41301	-64.79260	1353.62895	-300.85459	-85.49678	1378.74944	-631.44785	-22.95785	1326.49957	-439.81170	-27.09217	1326.68381	-495.40521	-62.99987	1207.56787	-229.08336	-123.68363	996.73982	-245.61227	-109.50328	1026.69548	-164.37720	33.40125	924.53079	-148.76381	121.02109	886.56106	-159.66270	88.08333	859.86724	-140.09188	-110.37616	1275.93165	-728.19127	-133.73104	1027.08296	-725.19229	-120.03934	1062.35676	-801.33279	-49.59543	1032.45125	-823.10986	94.06254	926.72032	-833.82360	67.66091	900.58301	-852.68939	-309.58412	810.74768	-386.65461	-313.16894	821.05892	-593.32739	-283.64500	843.84557	-401.04656	-287.39006	847.43110	-562.86718	
172	1.71000000	-68.21317	463.62473	-336.15556	-47.98856	356.10435	-361.90066	-280.74423	117.12225	-435.63648	-364.66982	74.29233	-500.22578	-188.55605	47.25765	-376.89866	-119.07423	72.05948	-430.20943	-62.32603	516.72740	-782.47858	-78.66089	440.28746	-817.95012	-261.21504	154.51080	-816.00748	-346.37514	106.22284	-758.65717	-179.82461	63.64405	-882.82993	-107.02941	77.07277	-832.01081	-117.51822	266.50015	-358.77139	-97.70074	393.87691	-320.15758	-180.62029	316.23533	-328.31965	-156.05511	480.40280	-794.14188	-204.69003	367.92115	-809.23966	-179.62198	767.73407	-311.40438	-111.68779	684.88762	-315.86113	-140.01598	627.84675	-288.96268	-265.55954	696.20159	-312.87975	-188.89782	611.11227	-309.45165	-155.91493	781.12994	-709.73411	-68.16406	675.02828	-738.09004	-241.32270	719.71080	-742.47903	-159.78736	612.86032	-769.30492	-214.28998	922.87912	-366.40287	-392.32994	959.95142	-433.48302	-212.85034	927.42717	-612.37225	-394.82264	962.51130	-543.24161	-127.61299	1451.81283	-459.43201	-66.35124	1363.60338	-300.88402	-87.95773	1388.41454	-631.71234	-24.61211	1336.66413	-439.91180	-28.87445	1336.76871	-495.57167	-64.58909	1216.87708	-229.29331	-126.52096	1006.46568	-246.62845	-112.04065	1036.05097	-164.78454	29.19762	931.02087	-149.92657	115.99675	891.34666	-160.82966	82.52028	865.17055	-141.39916	-113.29271	1284.93821	-728.30584	-138.08965	1036.17330	-724.76493	-123.87214	1071.00811	-800.36767	-53.82768	1039.97407	-822.42203	87.74611	931.52978	-833.60930	60.80245	905.82901	-852.27938	-306.91305	817.48444	-387.07043	-310.35899	828.32572	-593.71851	-281.15102	850.67406	-401.05814	-284.83639	854.45997	-563.34276	
173	1.72000000	-71.76153	466.03522	-335.99058	-50.75776	358.51005	-361.37728	-280.90595	117.09153	-435.62806	-364.66424	74.35267	-500.18363	-188.56895	47.20589	-376.87102	-119.05243	72.07291	-430.14136	-65.11908	519.03668	-782.70419	-81.18478	442.34320	-818.58745	-261.26514	154.93123	-816.51267	-346.17616	106.62642	-759.28258	-179.73684	63.67583	-883.01905	-106.92768	77.15036	-832.17934	-119.53202	268.31660	-358.33946	-101.00186	395.93647	-319.86339	-183.23720	317.36970	-328.67817	-158.77078	481.93329	-794.92512	-206.75221	368.94921	-809.65440	-178.21729	772.26547	-311.37942	-111.21992	688.00292	-316.03811	-141.05179	631.56159	-288.99469	-265.28685	702.22407	-313.02819	-190.21620	615.65502	-309.62489	-154.46606	785.32593	-710.25010	-68.60487	677.62330	-738.47932	-240.83227	725.44441	-743.18604	-161.32136	616.87098	-769.45176	-211.92183	929.73507	-366.26951	-389.93626	966.53996	-433.58952	-210.09591	934.95913	-612.48741	-392.35508	969.27444	-543.11095	-130.29101	1460.87963	-459.50423	-68.04754	1373.47230	-300.93228	-90.55967	1397.83223	-631.85629	-26.33172	1346.68211	-440.02100	-30.72838	1346.77976	-495.73967	-66.26261	1226.02340	-229.62114	-129.30464	1016.12891	-247.75996	-114.49252	1045.23267	-165.61057	24.95772	937.53618	-151.08803	110.92872	896.20760	-162.06938	76.98048	870.64075	-142.48299	-116.18109	1293.84839	-728.30977	-142.69713	1045.04388	-724.63930	-127.66446	1079.69594	-799.44683	-58.13197	1047.41645	-821.72754	81.30393	936.27283	-833.41459	53.76611	911.05825	-851.90468	-304.15825	824.14290	-387.39390	-307.42436	835.51778	-594.01588	-278.51307	857.49965	-401.13480	-282.10111	861.55559	-563.58933	
174	1.73000000	-75.39773	468.51086	-335.89533	-53.53841	360.99444	-361.05330	-281.04099	117.11925	-435.62369	-364.72130	74.41444	-500.16942	-188.58689	47.19484	-376.85758	-119.06758	72.08327	-430.12787	-67.86666	521.54777	-782.90779	-83.72380	444.41700	-819.24717	-261.20206	155.45805	-817.07064	-345.95586	107.23433	-759.85450	-179.63990	63.75498	-883.30417	-106.87146	77.11885	-832.39123	-121.74023	269.98760	-358.29592	-104.32135	398.07230	-319.69686	-186.49054	318.64614	-329.45146	-161.61987	483.36190	-795.59069	-208.69325	370.07274	-810.27887	-176.83195	776.87317	-311.48835	-110.93435	691.19007	-315.91047	-142.05719	635.28486	-289.12026	-265.01985	708.15075	-313.14332	-191.43036	619.88746	-310.18693	-153.02440	789.32155	-710.72995	-69.05298	680.14943	-738.82123	-240.31945	731.03459	-743.64787	-162.81818	621.02825	-769.94350	-209.51730	936.52335	-366.12577	-387.54304	973.00346	-433.67870	-207.28561	942.37914	-612.21396	-389.78736	976.01871	-543.24584	-133.05560	1469.80826	-459.60708	-69.87748	1383.20557	-300.93437	-93.04918	1407.13704	-632.08954	-28.12797	1356.61486	-440.11780	-32.60101	1356.65143	-495.90996	-67.92359	1235.03902	-230.11621	-132.14125	1025.62366	-248.86489	-116.89575	1054.08798	-166.96052	20.69456	944.12939	-152.14463	105.82777	901.10516	-163.37276	71.50399	876.32421	-143.39833	-119.02387	1302.53979	-728.04263	-146.89503	1053.96019	-723.71141	-131.44682	1088.23838	-798.53003	-62.60727	1054.77700	-821.04930	74.71760	940.99125	-833.28279	46.43807	916.52919	-852.11880	-301.46078	830.73381	-387.66854	-304.35220	842.61923	-594.26736	-275.84092	864.21821	-401.27082	-279.16746	868.68568	-563.64589	
